<?xml version="1.0" encoding="utf-8"?>
<!-- Generator: Adobe Illustrator 25.2.0, SVG Export Plug-In . SVG Version: 6.00 Build 0)  -->
<svg version="1.1" id="Ebene_1" xmlns="http://www.w3.org/2000/svg" xmlns:xlink="http://www.w3.org/1999/xlink" x="0px" y="0px"
	 viewBox="0 0 142.9 68.4" style="enable-background:new 0 0 142.9 68.4;" xml:space="preserve">
<style type="text/css">
	.st0{fill:#04B4CC;}
</style>
<g>
	<g>
		<g>
			<g>
				<path id="SVGID_1_" class="st0" d="M124,9.6c0,4.7,3.8,8.7,8.7,8.7c4.7,0,8.7-3.8,8.7-8.7s-4-8.7-8.7-8.7
					C127.8,0.9,124,4.7,124,9.6 M89.6,0.9c-7.8,0-12.1,6.7-15,11.6c-2.5,4.2-15.2,28.8-19,36c-0.4,0.9-1.8,1.1-2.5,0.2L41.3,34.4
					L57,15.2c2.9-3.8,2.5-9.2-1.3-12.3C51.8,0,46.5,0.4,43.4,4.2L30.2,20.5L17,4.2C14.1,0.4,8.5,0,4.7,2.9s-4.2,8.5-1.3,12.3
					c0,0,7.4,9.2,15.6,19.2L3.4,53.6c-2.9,3.8-2.5,9.2,1.3,12.3c3.8,2.9,9.2,2.5,12.3-1.3l13.2-16.3c5.1,6.5,9.4,11.6,10.3,12.7
					c3.4,3.8,8,6.9,14.1,6.9c7.4,0,12.1-3.4,15.6-9.8C72.9,53.2,85.2,30,89,23c0.4-0.9,1.6-0.9,2,0c3.6,6.7,14.7,27.9,16.8,31.5
					c2.9,5.1,8,13.4,17.6,13.4c12.5,0,15.9-10.7,15.9-19.2v-17c0-4.9-4-8.9-8.9-8.9c-4.7,0-8.5,4-8.5,8.7V46c0,0.7-0.9,0.9-1.1,0.2
					c-4-7.6-16.8-31.9-18.8-35.5C101.7,6.2,97.4,0.9,89.6,0.9z"/>
			</g>
		</g>
	</g>
</g>
</svg>
